<svg width="17" height="17" viewBox="0 0 17 17" fill="none" xmlns="http://www.w3.org/2000/svg">
<g clip-path="url(#clip0_1_1042)">
<path d="M9.91667 9.20829C8.94023 9.20829 8.14583 8.4139 8.14583 7.43746C8.14583 6.46102 8.94023 5.66663 9.91667 5.66663C10.8931 5.66663 11.6875 6.46102 11.6875 7.43746C11.6875 8.4139 10.8931 9.20829 9.91667 9.20829ZM9.91667 6.37496C9.33087 6.37496 8.85417 6.85167 8.85417 7.43746C8.85417 8.02325 9.33087 8.49996 9.91667 8.49996C10.5025 8.49996 10.9792 8.02325 10.9792 7.43746C10.9792 6.85167 10.5025 6.37496 9.91667 6.37496ZM11.6875 16.6458H8.14583C7.75519 16.6458 7.4375 16.3281 7.4375 15.9375V9.91663H12.3958V15.9375C12.3958 16.3281 12.0781 16.6458 11.6875 16.6458ZM8.14583 10.625V15.9375H11.6879L11.6875 10.625H8.14583Z" fill="#00A7E1"/>
<path d="M8.14587 14.1667H6.72921C6.33856 14.1667 6.02087 13.849 6.02087 13.4583V10.9792C6.02087 10.3934 6.49758 9.91666 7.08337 9.91666H8.14587V14.1667ZM7.08337 10.625C6.88823 10.625 6.72921 10.7837 6.72921 10.9792V13.4583H7.43754V10.625H7.08337ZM13.1042 14.1667H11.6875V9.91666H12.75C13.3358 9.91666 13.8125 10.3934 13.8125 10.9792V13.4583C13.8125 13.849 13.4949 14.1667 13.1042 14.1667ZM12.3959 13.4583H13.1042V10.9792C13.1042 10.7837 12.9452 10.625 12.75 10.625H12.3959V13.4583ZM4.95837 4.95833C4.17708 4.95833 3.54171 4.32296 3.54171 3.54166C3.54171 2.76037 4.17708 2.125 4.95837 2.125C5.73967 2.125 6.37504 2.76037 6.37504 3.54166C6.37504 4.32296 5.73967 4.95833 4.95837 4.95833ZM4.95837 2.83333C4.56773 2.83333 4.25004 3.15102 4.25004 3.54166C4.25004 3.93231 4.56773 4.25 4.95837 4.25C5.34902 4.25 5.66671 3.93231 5.66671 3.54166C5.66671 3.15102 5.34902 2.83333 4.95837 2.83333ZM2.47921 3.89583H2.12504C2.03111 3.89583 1.94103 3.85852 1.87461 3.7921C1.80819 3.72568 1.77087 3.6356 1.77087 3.54166C1.77087 3.44773 1.80819 3.35765 1.87461 3.29123C1.94103 3.22481 2.03111 3.1875 2.12504 3.1875H2.47921C2.57314 3.1875 2.66322 3.22481 2.72964 3.29123C2.79606 3.35765 2.83337 3.44773 2.83337 3.54166C2.83337 3.6356 2.79606 3.72568 2.72964 3.7921C2.66322 3.85852 2.57314 3.89583 2.47921 3.89583ZM7.79171 3.89583H7.43754C7.34361 3.89583 7.25353 3.85852 7.18711 3.7921C7.12069 3.72568 7.08337 3.6356 7.08337 3.54166C7.08337 3.44773 7.12069 3.35765 7.18711 3.29123C7.25353 3.22481 7.34361 3.1875 7.43754 3.1875H7.79171C7.88564 3.1875 7.97572 3.22481 8.04214 3.29123C8.10856 3.35765 8.14587 3.44773 8.14587 3.54166C8.14587 3.6356 8.10856 3.72568 8.04214 3.7921C7.97572 3.85852 7.88564 3.89583 7.79171 3.89583ZM3.20525 2.14271C3.15873 2.14275 3.11267 2.13361 3.0697 2.1158C3.02673 2.09799 2.9877 2.07187 2.95485 2.03894L2.70446 1.78854C2.67158 1.75566 2.64549 1.71662 2.6277 1.67366C2.6099 1.63069 2.60074 1.58465 2.60074 1.53814C2.60074 1.49164 2.6099 1.44559 2.6277 1.40263C2.64549 1.35967 2.67158 1.32063 2.70446 1.28775C2.73734 1.25487 2.77638 1.22878 2.81934 1.21099C2.8623 1.19319 2.90835 1.18403 2.95485 1.18403C3.00136 1.18403 3.0474 1.19319 3.09037 1.21099C3.13333 1.22878 3.17237 1.25487 3.20525 1.28775L3.45564 1.53814C3.50533 1.58761 3.53921 1.65072 3.55297 1.71947C3.56672 1.78822 3.55974 1.85951 3.53291 1.92428C3.50609 1.98906 3.46062 2.0444 3.40228 2.08329C3.34394 2.12218 3.27536 2.14286 3.20525 2.14271ZM6.96189 5.89935C6.91538 5.8994 6.86931 5.89026 6.82634 5.87245C6.78337 5.85464 6.74434 5.82852 6.7115 5.79558L6.4611 5.54518C6.42822 5.5123 6.40214 5.47327 6.38434 5.4303C6.36655 5.38734 6.35739 5.34129 6.35739 5.29479C6.35739 5.24829 6.36655 5.20224 6.38434 5.15928C6.40214 5.11631 6.42822 5.07728 6.4611 5.04439C6.49399 5.01151 6.53302 4.98543 6.57599 4.96763C6.61895 4.94984 6.665 4.94068 6.7115 4.94068C6.758 4.94068 6.80405 4.94984 6.84701 4.96763C6.88998 4.98543 6.92901 5.01151 6.96189 5.04439L7.21229 5.29479C7.26198 5.34425 7.29585 5.40737 7.30961 5.47611C7.32337 5.54486 7.31639 5.61615 7.28956 5.68093C7.26273 5.7457 7.21726 5.80105 7.15892 5.83994C7.10058 5.87883 7.03201 5.89951 6.96189 5.89935ZM4.95837 1.41666C4.86444 1.41666 4.77436 1.37935 4.70794 1.31293C4.64152 1.24651 4.60421 1.15643 4.60421 1.0625V0.708331C4.60421 0.6144 4.64152 0.524316 4.70794 0.457897C4.77436 0.391478 4.86444 0.354164 4.95837 0.354164C5.0523 0.354164 5.14239 0.391478 5.20881 0.457897C5.27523 0.524316 5.31254 0.6144 5.31254 0.708331V1.0625C5.31254 1.15643 5.27523 1.24651 5.20881 1.31293C5.14239 1.37935 5.0523 1.41666 4.95837 1.41666ZM4.95837 6.72916C4.86444 6.72916 4.77436 6.69185 4.70794 6.62543C4.64152 6.55901 4.60421 6.46893 4.60421 6.375V6.02083C4.60421 5.9269 4.64152 5.83682 4.70794 5.7704C4.77436 5.70398 4.86444 5.66666 4.95837 5.66666C5.0523 5.66666 5.14239 5.70398 5.20881 5.7704C5.27523 5.83682 5.31254 5.9269 5.31254 6.02083V6.375C5.31254 6.46893 5.27523 6.55901 5.20881 6.62543C5.14239 6.69185 5.0523 6.72916 4.95837 6.72916ZM6.7115 2.14271C6.64139 2.14286 6.57281 2.12218 6.51447 2.08329C6.45613 2.0444 6.41066 1.98906 6.38383 1.92428C6.357 1.85951 6.35003 1.78822 6.36378 1.71947C6.37754 1.65072 6.41141 1.58761 6.4611 1.53814L6.7115 1.28775C6.74438 1.25487 6.78342 1.22878 6.82638 1.21099C6.86934 1.19319 6.91539 1.18403 6.96189 1.18403C7.0084 1.18403 7.05445 1.19319 7.09741 1.21099C7.14037 1.22878 7.17941 1.25487 7.21229 1.28775C7.24517 1.32063 7.27126 1.35967 7.28905 1.40263C7.30685 1.44559 7.31601 1.49164 7.31601 1.53814C7.31601 1.58465 7.30685 1.63069 7.28905 1.67366C7.27126 1.71662 7.24517 1.75566 7.21229 1.78854L6.96189 2.03894C6.92903 2.07184 6.88999 2.09794 6.84703 2.11575C6.80406 2.13356 6.75801 2.14272 6.7115 2.14271ZM2.95485 5.89935C2.88474 5.89951 2.81616 5.87883 2.75782 5.83994C2.69949 5.80105 2.65402 5.7457 2.62719 5.68093C2.60036 5.61615 2.59338 5.54486 2.60714 5.47611C2.62089 5.40737 2.65477 5.34425 2.70446 5.29479L2.95485 5.04439C3.02126 4.97798 3.11133 4.94068 3.20525 4.94068C3.29917 4.94068 3.38924 4.97798 3.45564 5.04439C3.52205 5.1108 3.55936 5.20087 3.55936 5.29479C3.55936 5.38871 3.52205 5.47878 3.45564 5.54518L3.20525 5.79558C3.17245 5.82858 3.13343 5.85474 3.09045 5.87256C3.04747 5.89037 3.00138 5.89948 2.95485 5.89935ZM14.1639 5.66666C13.4878 5.66666 12.8563 5.37979 12.3856 4.85987C11.871 4.29073 11.622 3.50908 11.7021 2.71469C11.8204 1.54416 12.6576 0.589685 13.7382 0.393123C14.0437 0.335765 14.3577 0.340946 14.6611 0.408352C14.7845 0.435944 14.8984 0.495743 14.9911 0.581659C15.0839 0.667575 15.1522 0.77654 15.1892 0.897456C15.2721 1.156 15.2115 1.44146 15.0305 1.64191C14.7001 2.00848 14.518 2.49475 14.518 3.01041C14.518 3.52714 14.7008 4.01412 15.0326 4.38104C15.122 4.48108 15.1839 4.60258 15.2123 4.73369C15.2406 4.86479 15.2345 5.00101 15.1945 5.12904C15.1198 5.37023 14.9342 5.54766 14.6987 5.60362C14.5244 5.64541 14.3445 5.66666 14.1639 5.66666ZM14.1299 1.06462C14.0417 1.06462 13.9539 1.07383 13.8657 1.08977C13.1056 1.22825 12.4926 1.94119 12.4072 2.78587C12.347 3.38123 12.5308 3.96383 12.9112 4.38458C13.3341 4.85244 13.9567 5.05325 14.534 4.91477C14.5141 4.913 14.5265 4.87793 14.5071 4.85633C14.0573 4.35873 13.8097 3.70316 13.8097 3.01041C13.8097 2.31908 14.0566 1.66458 14.5046 1.16769C14.5081 1.16344 14.5191 1.15139 14.5173 1.12837C14.3926 1.08583 14.2617 1.06428 14.1299 1.06462Z" fill="#00A7E1"/>
</g>
<defs>
<clipPath id="clip0_1_1042">
<rect width="17" height="17" fill="white"/>
</clipPath>
</defs>
</svg>
