<svg width="24" height="27" viewBox="0 0 24 27" fill="none" xmlns="http://www.w3.org/2000/svg">
<path d="M3.49979 16.9124V16.7079C3.53471 16.0531 3.74136 15.4187 4.09925 14.8677C4.69601 14.1991 5.10626 13.3869 5.28922 12.5119C5.33396 11.8452 5.28922 11.1607 5.33396 10.485C5.65606 7.24024 8.86809 5 11.9459 5H12.0354C15.1669 5 18.2984 7.24024 18.6384 10.485C18.701 11.1518 18.6384 11.8452 18.6921 12.5119C18.8706 13.3884 19.2814 14.2017 19.882 14.8677C20.2555 15.4124 20.4692 16.0495 20.4995 16.7079V16.9124C20.5049 17.7993 20.1871 18.6582 19.6047 19.3304C18.8575 20.1274 17.8419 20.624 16.7505 20.7261C13.5637 21.135 10.3371 21.135 7.15023 20.7261C6.07158 20.6157 5.07004 20.1197 4.33188 19.3304C3.76774 18.6518 3.47191 17.7921 3.49979 16.9124Z" fill="#E0E3E9"/>
<path d="M13.1627 22.0952C12.5275 22.0507 12.0085 22.0952 11.4896 22.0952C10.9749 22.0863 10.4611 22.14 9.95963 22.2552C9.53016 22.353 9.06491 22.5841 9.06491 23.0731C9.10997 23.5456 9.36615 23.9731 9.76279 24.2376C10.5268 24.8212 11.4897 25.0858 12.4469 24.9755C13.3774 24.9069 14.2279 24.4273 14.7643 23.6687C15.0607 23.2844 14.9931 22.735 14.6122 22.433C14.1611 22.2125 13.6654 22.097 13.1627 22.0952Z" fill="#99A1B7"/>
<rect x="13" y="1" width="8.84444" height="8.84445" rx="4.42222" fill="#FF6A55"/>
<rect x="13" y="1" width="8.84444" height="8.84445" rx="4.42222" stroke="#FCFCFC" stroke-width="2"/>
</svg>
