<svg width="17" height="17" viewBox="0 0 17 17" fill="none" xmlns="http://www.w3.org/2000/svg">
<path fill-rule="evenodd" clip-rule="evenodd" d="M7.5 0C6.87866 0 6.375 0.527646 6.375 1.17857V2.35714H1.875C0.839475 2.35714 0 3.23659 0 4.32143V14.5357C0 15.6205 0.839475 16.5 1.875 16.5H14.625C15.6605 16.5 16.5 15.6205 16.5 14.5357V4.32143C16.5 3.23659 15.6605 2.35714 14.625 2.35714H10.125V1.17857C10.125 0.527646 9.62134 0 9 0H7.5ZM9.375 2.35714V1.17857C9.375 0.961596 9.20711 0.785714 9 0.785714H7.5C7.29289 0.785714 7.125 0.961596 7.125 1.17857V2.35714H9.375ZM5.25 3.14286V5.5C5.87134 5.5 6.375 6.02765 6.375 6.67857C6.375 7.3295 5.87134 7.85714 5.25 7.85714V11C5.87134 11 6.375 11.5276 6.375 12.1786C6.375 12.8295 5.87134 13.3571 5.25 13.3571V15.7143H11.25V13.3571C10.6287 13.3571 10.125 12.8295 10.125 12.1786C10.125 11.5276 10.6287 11 11.25 11V7.85714C10.6287 7.85714 10.125 7.3295 10.125 6.67857C10.125 6.02765 10.6287 5.5 11.25 5.5V3.14286H5.25ZM12 3.14286V5.5C12.6213 5.5 13.125 6.02765 13.125 6.67857C13.125 7.3295 12.6213 7.85714 12 7.85714V11C12.6213 11 13.125 11.5276 13.125 12.1786C13.125 12.8295 12.6213 13.3571 12 13.3571V15.7143H13.125C13.125 14.1955 14.3003 12.9643 15.75 12.9643V5.89286C14.3003 5.89286 13.125 4.66164 13.125 3.14286H12ZM3.375 3.14286H4.5V5.5C3.87866 5.5 3.375 6.02765 3.375 6.67857C3.375 7.3295 3.87866 7.85714 4.5 7.85714V11C3.87866 11 3.375 11.5276 3.375 12.1786C3.375 12.8295 3.87866 13.3571 4.5 13.3571V15.7143H3.375C3.375 14.1955 2.19975 12.9643 0.75 12.9643V5.89286C2.19975 5.89286 3.375 4.66164 3.375 3.14286ZM0.75 4.32143C0.75 3.6705 1.25366 3.14286 1.875 3.14286H2.625C2.625 4.22769 1.78552 5.10714 0.75 5.10714V4.32143ZM14.625 15.7143H13.875C13.875 14.6294 14.7145 13.75 15.75 13.75V14.5357C15.75 15.1866 15.2463 15.7143 14.625 15.7143ZM13.875 3.14286C13.875 4.22769 14.7145 5.10714 15.75 5.10714V4.32143C15.75 3.6705 15.2463 3.14286 14.625 3.14286H13.875ZM0.75 14.5357V13.75C1.78552 13.75 2.625 14.6294 2.625 15.7143H1.875C1.25366 15.7143 0.75 15.1866 0.75 14.5357ZM5.25 6.28571C5.45711 6.28571 5.625 6.4616 5.625 6.67857C5.625 6.89555 5.45711 7.07143 5.25 7.07143H4.5C4.29289 7.07143 4.125 6.89555 4.125 6.67857C4.125 6.4616 4.29289 6.28571 4.5 6.28571H5.25ZM5.625 12.1786C5.625 11.9616 5.45711 11.7857 5.25 11.7857H4.5C4.29289 11.7857 4.125 11.9616 4.125 12.1786C4.125 12.3955 4.29289 12.5714 4.5 12.5714H5.25C5.45711 12.5714 5.625 12.3955 5.625 12.1786ZM12 6.28571C12.2071 6.28571 12.375 6.4616 12.375 6.67857C12.375 6.89555 12.2071 7.07143 12 7.07143H11.25C11.0429 7.07143 10.875 6.89555 10.875 6.67857C10.875 6.4616 11.0429 6.28571 11.25 6.28571H12ZM12.375 12.1786C12.375 11.9616 12.2071 11.7857 12 11.7857H11.25C11.0429 11.7857 10.875 11.9616 10.875 12.1786C10.875 12.3955 11.0429 12.5714 11.25 12.5714H12C12.2071 12.5714 12.375 12.3955 12.375 12.1786Z" fill="#595959"/>
</svg>
