<svg width="24" height="24" viewBox="0 0 24 24" fill="none" xmlns="http://www.w3.org/2000/svg">
<path d="M11.2202 1.50586H12.7782C13.1909 1.50586 13.498 1.80975 13.498 2.22405V4.07812C13.4996 4.41404 13.7236 4.70829 14.0467 4.79787C14.6066 4.95464 15.1472 5.17868 15.6559 5.46022C15.9487 5.62178 16.3118 5.57223 16.5485 5.33388L17.8522 4.03008C17.918 3.96087 17.9971 3.90586 18.0848 3.8682C18.1726 3.83054 18.267 3.81099 18.3625 3.81099C18.458 3.81099 18.5524 3.83054 18.6402 3.8682C18.7279 3.90586 18.807 3.96087 18.8728 4.03008L19.9733 5.13236C20.0423 5.1981 20.0972 5.27696 20.1347 5.36454C20.1722 5.45211 20.1916 5.54655 20.1916 5.64182C20.1916 5.73709 20.1722 5.83133 20.1347 5.9189C20.0972 6.00648 20.0423 6.08554 19.9733 6.15127L18.6616 7.46132C18.5463 7.57754 18.4721 7.72839 18.4504 7.89071C18.4288 8.05303 18.4608 8.21792 18.5417 8.36033C18.8264 8.86581 19.0519 9.40321 19.2135 9.96308C19.3047 10.283 19.6006 10.507 19.9365 10.5038H21.7793C21.8744 10.5016 21.969 10.5188 22.0573 10.5542C22.1457 10.5896 22.2259 10.6425 22.2932 10.7098C22.3605 10.7771 22.4134 10.8573 22.4488 10.9457C22.4842 11.034 22.5013 11.1286 22.4991 11.2237V12.7833C22.5013 12.8785 22.4842 12.9731 22.4488 13.0614C22.4134 13.1497 22.3605 13.2298 22.2932 13.2971C22.2259 13.3644 22.1457 13.4173 22.0573 13.4527C21.969 13.4881 21.8744 13.5053 21.7793 13.5031H19.9269C19.591 13.5031 19.2951 13.7271 19.2039 14.0518C19.0471 14.6117 18.8264 15.1507 18.5449 15.6594C18.4658 15.8018 18.4352 15.9662 18.4577 16.1275C18.4802 16.2888 18.5546 16.4383 18.6696 16.5536L19.9733 17.8574C20.0423 17.9231 20.0972 18.0021 20.1347 18.0897C20.1722 18.1773 20.1916 18.2715 20.1916 18.3668C20.1916 18.4621 20.1722 18.5563 20.1347 18.6439C20.0972 18.7315 20.0423 18.8105 19.9733 18.8763L18.8728 19.9783C18.807 20.0476 18.7279 20.1028 18.6402 20.1404C18.5524 20.1781 18.458 20.1974 18.3625 20.1974C18.267 20.1974 18.1726 20.1781 18.0848 20.1404C17.9971 20.1028 17.918 20.0476 17.8522 19.9783L16.5437 18.6683C16.4278 18.552 16.2769 18.4771 16.1142 18.4549C15.9515 18.4326 15.786 18.4642 15.6431 18.5451C15.1372 18.8303 14.5999 19.0558 14.0419 19.217C13.8854 19.2618 13.7478 19.3562 13.6497 19.4861C13.5516 19.6159 13.4983 19.774 13.498 19.9368V21.7828C13.5002 21.8779 13.4831 21.9725 13.4477 22.0609C13.4123 22.1492 13.3593 22.2295 13.2921 22.2968C13.2248 22.364 13.1446 22.417 13.0562 22.4524C12.9679 22.4878 12.8733 22.5048 12.7782 22.5026H11.2202C11.125 22.5048 11.0304 22.4878 10.9421 22.4524C10.8538 22.417 10.7736 22.364 10.7063 22.2968C10.639 22.2295 10.5861 22.1492 10.5507 22.0609C10.5153 21.9725 10.4981 21.8779 10.5003 21.7828V19.9305C10.4987 19.5946 10.2748 19.3001 9.95165 19.2106C9.39145 19.0541 8.8514 18.833 8.34242 18.5515C8.2003 18.4729 8.03653 18.4424 7.87563 18.4646C7.71472 18.4868 7.56533 18.5605 7.44983 18.6747L6.14613 19.9783C6.08037 20.0476 6.00123 20.1028 5.9135 20.1404C5.82578 20.1781 5.73131 20.1974 5.63584 20.1974C5.54038 20.1974 5.44591 20.1781 5.35818 20.1404C5.27046 20.1028 5.19132 20.0476 5.12556 19.9783L4.02502 18.8747C3.95569 18.8093 3.90045 18.7306 3.86269 18.6431C3.82493 18.5556 3.80545 18.4613 3.80545 18.366C3.80545 18.2707 3.82493 18.1764 3.86269 18.0889C3.90045 18.0015 3.95569 17.9227 4.02502 17.8574L5.33191 16.5504C5.44732 16.435 5.52195 16.285 5.54447 16.1234C5.56698 15.9617 5.53616 15.7973 5.45669 15.6547C5.17279 15.1471 4.94894 14.6081 4.78964 14.0487C4.74465 13.8914 4.64951 13.7532 4.5187 13.655C4.38788 13.5568 4.22857 13.5039 4.06501 13.5046H2.22063C2.12537 13.5068 2.03065 13.4898 1.94222 13.4543C1.85378 13.4188 1.77348 13.3657 1.70617 13.2982C1.63887 13.2308 1.58596 13.1503 1.55066 13.0618C1.51535 12.9733 1.49839 12.8786 1.5008 12.7833V11.2253C1.49795 11.1298 1.51459 11.0346 1.54969 10.9457C1.5848 10.8568 1.63763 10.776 1.70499 10.7082C1.77234 10.6404 1.85279 10.5871 1.94145 10.5514C2.0301 10.5157 2.12509 10.4984 2.22063 10.5007H4.06981C4.40573 10.5023 4.70166 10.28 4.79444 9.95683C4.9512 9.39696 5.17035 8.85628 5.45349 8.3492C5.53256 8.20631 5.56286 8.04145 5.53976 7.87978C5.51666 7.7181 5.44144 7.56835 5.32552 7.45331L4.02342 6.15127C3.95445 6.08554 3.89955 6.00648 3.86204 5.9189C3.82453 5.83133 3.80519 5.73709 3.80519 5.64182C3.80519 5.54655 3.82453 5.45211 3.86204 5.36454C3.89955 5.27696 3.95445 5.1981 4.02342 5.13236L5.12396 4.03008C5.18972 3.96087 5.26886 3.90586 5.35659 3.8682C5.44431 3.83054 5.53878 3.81099 5.63424 3.81099C5.72971 3.81099 5.82418 3.83054 5.9119 3.8682C5.99963 3.90586 6.07877 3.96087 6.14453 4.03008L7.45302 5.34013C7.69137 5.57687 8.05768 5.6281 8.34882 5.46334C8.85576 5.17793 9.39419 4.95259 9.95325 4.79162C10.1097 4.74686 10.2474 4.65239 10.3455 4.52254C10.4436 4.3927 10.4968 4.23441 10.4971 4.07167V2.22249C10.4971 1.80979 10.8058 1.50586 11.217 1.50586H11.2202ZM11.9992 7.50447C10.8067 7.50743 9.66386 7.98242 8.82063 8.82565C7.9774 9.66888 7.50237 10.8117 7.49941 12.0042C7.50237 13.1967 7.9774 14.3395 8.82063 15.1828C9.66386 16.026 10.8067 16.501 11.9992 16.504C13.192 16.501 14.3351 16.0261 15.1789 15.183C16.0226 14.3398 16.4983 13.197 16.5021 12.0042C16.4983 10.8114 16.0226 9.66859 15.1789 8.82546C14.3351 7.98232 13.192 7.50742 11.9992 7.50447ZM11.9992 9.00491C13.6644 9.00491 15.0001 10.339 15.0001 12.0042C15.0016 12.3986 14.9249 12.7895 14.7746 13.1541C14.6243 13.5188 14.4033 13.8501 14.1243 14.1289C13.8454 14.4077 13.5139 14.6287 13.1492 14.7788C12.7845 14.9289 12.3936 15.0052 11.9992 15.0035C11.6049 15.005 11.2142 14.9286 10.8496 14.7784C10.4851 14.6282 10.1538 14.4071 9.87504 14.1283C9.59624 13.8495 9.37537 13.5183 9.22516 13.1538C9.07495 12.7892 8.99839 12.3985 8.99987 12.0042C8.99987 10.339 10.334 9.00491 11.9992 9.00491Z" fill="#E0E3E9"/>
<circle cx="12" cy="12" r="3" fill="#99A1B7"/>
</svg>
